<svg width="100" height="100" viewBox="0 0 100 100" fill="none" xmlns="http://www.w3.org/2000/svg">
<g id="apple-settings 1">
<g id="setting_box">
<path id="Background 9" d="M63.6 5C72.6 5 77.1 5 82 6.5C87.3 8.4 91.5 12.6 93.4 17.9C95 22.8 95 27.4 95 36.4V63.6C95 72.6 95 77.1 93.5 82C91.6 87.3 87.4 91.5 82.1 93.4C77.1 95 72.6 95 63.6 95H36.4C27.4 95 22.9 95 18 93.5C12.6 91.5 8.5 87.4 6.5 82C5 77.2 5 72.7 5 63.6V36.4C5 27.4 5 22.9 6.5 18C8.5 12.7 12.6 8.5 18 6.6C22.8 5 27.3 5 36.4 5H63.6Z" fill="url(#paint0_linear)"/>
<path id="Oval 3" d="M50 89C71.5391 89 89 71.5391 89 50C89 28.4609 71.5391 11 50 11C28.4609 11 11 28.4609 11 50C11 71.5391 28.4609 89 50 89Z" fill="#2E2E30"/>
</g>
<g id="small_gear">
<path id="path 3 15" d="M52.6257 29.2415L53.616 29.3807L54.6989 26.7054C55.0222 25.842 55.2063 25.9688 55.194 26.7749L55.1014 29.5894C55.3985 29.6312 55.7807 29.7859 56.0778 29.8276L57.4438 27.2931C57.8522 26.5426 58.0503 26.5705 57.925 27.4617L57.4363 30.2205C57.7195 30.3613 58.1017 30.516 58.3987 30.5578L60.034 28.263C60.5415 27.5265 60.7256 27.6533 60.5013 28.5307L59.7155 31.2477C59.9987 31.3885 60.3809 31.5432 60.6501 31.783L62.4695 29.6151C63.0621 28.9915 63.2462 29.1184 62.9368 29.8828L61.854 32.5581C62.1232 32.7979 62.4064 32.9387 62.6756 33.1785L64.7643 31.2504C65.4559 30.6407 65.64 30.7676 65.2177 31.6171L63.8655 34.0526C64.1348 34.2924 64.404 34.5322 64.5743 34.7581L66.9182 33.1689C67.5959 32.6582 67.7801 32.7851 67.2726 33.5216L65.5105 36.0005C65.7797 36.2403 65.9499 36.4662 66.2053 36.805L68.7055 35.5407C69.4683 35.143 69.6525 35.2698 69.046 35.9925L67.1415 38.0474C67.3117 38.2733 67.567 38.6121 67.7233 38.937L70.3938 37.8986C71.2417 37.6138 71.3129 37.8258 70.6352 38.3365L68.4615 40.1516L68.9304 41.1263L71.6581 40.3989C72.4921 40.2132 72.5633 40.4251 71.8996 40.8368L69.5556 42.426C69.7119 42.7509 69.7691 43.0619 69.9254 43.3868L72.7105 42.9704C73.5306 42.8837 73.7008 43.1096 72.839 43.4934L70.3387 44.7577C70.396 45.0687 70.5523 45.3936 70.5956 45.8036L73.325 45.7833C74.2302 45.8095 74.2023 46.0076 73.4535 46.3062L70.8959 47.2596C70.9532 47.5706 70.9965 47.9806 71.0538 48.2916L73.8405 48.5823C74.7317 48.7075 74.7039 48.9056 73.8699 49.0913L71.1561 49.7197C71.2133 50.0307 71.1577 50.4268 71.1159 50.7239L73.7479 51.3968C74.6252 51.621 74.5974 51.8191 73.6783 51.8919L70.9071 52.2093L70.7541 53.2986L73.3582 54.1695C74.2216 54.4928 74.1938 54.6909 73.2886 54.6646L70.5592 54.685C70.5035 55.0811 70.3628 55.3643 70.3071 55.7604L72.7565 57.0135C73.507 57.4219 73.4792 57.6199 72.5879 57.4947L69.9142 57.1189C69.7734 57.4021 69.7178 57.7982 69.577 58.0813L71.8856 59.6176C72.6222 60.125 72.4953 60.3092 71.717 60.0988L69.0851 59.426C68.9443 59.7091 68.7896 60.0913 68.6488 60.3745L70.7177 62.18C71.3413 62.7725 71.3134 62.9706 70.45 62.6473L67.9588 61.6913C67.719 61.9605 67.5643 62.3427 67.3245 62.6119L69.1675 64.5877C69.7911 65.1802 69.6503 65.4634 68.8008 65.041L66.308 63.3779L65.5886 64.1857L67.2057 66.3316C67.7163 67.0093 67.5895 67.1934 66.8529 66.686L64.6433 65.1636C64.4035 65.4329 64.1637 65.7021 63.8388 65.8584L65.23 68.1746C65.6277 68.9374 65.5008 69.1215 64.7782 68.515L62.7093 66.7095C62.3705 66.9648 62.1446 67.1351 61.8197 67.2914L62.886 69.7638C63.2698 70.6256 63.0578 70.6968 62.4481 70.0052L60.6051 68.0295L59.6304 68.4984L60.3718 71.1272C60.6565 71.9751 60.4446 72.0463 59.9339 71.3686L58.4298 69.1375C58.1048 69.2938 57.7799 69.4501 57.356 69.5925L57.7864 72.2786C57.9721 73.1125 57.7601 73.1837 57.2634 72.407L55.9851 70.0058C55.6741 70.063 55.2502 70.2054 54.9392 70.2627L55.0725 72.907C55.1453 73.8261 54.8482 73.7843 54.5495 73.0354L53.5544 70.775C53.2434 70.8322 52.8334 70.8756 52.5224 70.9329L52.3447 73.6344C52.3185 74.5396 52.0214 74.4978 51.8357 73.6639L51.0943 71.0351C50.7833 71.0924 50.3872 71.0367 49.9772 71.0801L49.4033 73.726C49.2781 74.6172 48.981 74.5754 48.8943 73.7554L48.6759 70.9982C48.2798 70.9425 47.9827 70.9008 47.5727 70.9441L46.7018 73.5483C46.3785 74.4117 46.1804 74.3838 46.2066 73.4787L46.1863 70.7493C45.7902 70.6936 45.4931 70.6518 45.1109 70.4972L43.9569 72.9605C43.6475 73.7249 43.3504 73.6831 43.4756 72.7919L43.7524 70.1043C43.3702 69.9496 43.0731 69.9078 42.79 69.767L41.2537 72.0757C40.8453 72.8262 40.5482 72.7844 40.7725 71.9071L41.3463 69.2612C41.0631 69.1204 40.6809 68.9657 40.3978 68.8249L38.6774 71.0067C38.1699 71.7433 37.8868 71.6025 38.2101 70.7391L39.081 68.135C38.7978 67.9942 38.5286 67.7544 38.1464 67.5997L36.1568 69.5417C35.5642 70.1653 35.3801 70.0384 35.6895 69.274L36.9426 66.8246C36.6733 66.5848 36.4041 66.345 36.1209 66.2042L33.961 67.9203C33.2834 68.431 33.0992 68.3041 33.6067 67.5676L35.1429 65.2589C34.8737 65.0191 34.6045 64.7793 34.4482 64.4544L32.1598 65.6475C31.3831 66.1442 31.2129 65.9184 31.8055 65.2948L33.5259 63.113C33.2566 62.8732 33.1003 62.5482 32.9301 62.3223L30.4437 63.4877C29.6809 63.8854 29.5107 63.6595 30.1033 63.0359L32.0929 61.0939C31.9366 60.769 31.7664 60.5431 31.6101 60.2182L28.9674 61.0586C28.1195 61.3433 28.0483 61.1313 28.726 60.6207L30.9849 58.9185C30.8286 58.5936 30.6723 58.2687 30.615 57.9577L27.9151 58.4871C27.0811 58.6728 27.0099 58.4608 27.7866 57.9641L30.2018 56.5868C30.0455 56.2619 29.9882 55.9509 29.9309 55.6399L26.9756 55.8305C26.0566 55.9033 25.9854 55.6913 26.8472 55.3075L29.4187 54.2551C29.3614 53.9441 29.318 53.5341 29.2608 53.2231L26.4463 53.1305C25.5411 53.1043 25.5689 52.9062 26.4168 52.6215L29.0595 51.7811C29.0022 51.4701 29.0579 51.074 29.0006 50.763L26.2418 50.2743C25.3505 50.149 25.3923 49.8519 26.2123 49.7652L29.0113 49.2497C29.0531 48.9527 29.0097 48.5426 29.0515 48.2456L26.3344 47.4598C25.4571 47.2355 25.4988 46.9384 26.404 46.9646L29.2463 46.8592L29.3855 45.8689L26.8092 44.8C26.0448 44.4906 26.0865 44.1935 26.9778 44.3187L29.7784 44.5104C29.8201 44.2133 29.9748 43.8311 30.1156 43.5479L27.6801 42.1958C26.9296 41.7874 26.9574 41.5893 27.8487 41.7146L30.6075 42.2033C30.7483 41.9202 30.903 41.538 31.0438 41.2548L28.749 39.6195C28.0125 39.1121 28.1393 38.9279 29.0167 39.1522L31.7198 40.037C31.8606 39.7539 32.1004 39.4846 32.2412 39.2015L30.1863 37.2969C29.5627 36.7044 29.6895 36.5202 30.4539 36.8296L33.0163 37.9976C33.2561 37.7284 33.3969 37.4452 33.6367 37.176L31.8215 35.0022C31.2119 34.3106 31.4377 34.1404 32.1743 34.6478L34.5959 36.099C34.8357 35.8297 35.0616 35.6595 35.3014 35.3903L33.7261 32.9473C33.2293 32.1706 33.4413 32.0994 34.0788 32.5929L36.3596 34.3272C36.5995 34.058 36.9244 33.9017 37.1642 33.6324L35.9416 30.835C35.5439 30.0723 35.7698 29.902 36.3934 30.4946L38.4344 32.4982C38.6603 32.3279 38.9852 32.1716 39.3101 32.0153L38.3707 29.3587C38.0859 28.5109 38.2979 28.4397 38.8086 29.1173L40.6098 31.3901C40.9347 31.2338 41.2596 31.0775 41.4855 30.9073L40.871 28.0944C40.6852 27.2604 40.8972 27.1892 41.4079 27.8669L42.8842 30.296C43.2091 30.1397 43.5201 30.0824 43.8311 30.0252L43.5276 27.155C43.4548 26.2359 43.6668 26.1647 44.0506 27.0265L45.2019 29.6119L46.1349 29.4401L46.2275 26.6256C46.2538 25.7204 46.4518 25.7483 46.7366 26.5962L47.5631 29.3379C47.8741 29.2806 48.2841 29.2372 48.5812 29.279L48.9848 26.4072C49.11 25.516 49.3081 25.5438 49.4938 26.3778L50.1083 29.1907C50.4054 29.2324 50.8154 29.1891 51.1125 29.2308L51.7993 26.4998C52.0235 25.6225 52.2216 25.6503 52.2944 26.5694L52.6257 29.2415ZM47.6064 67.1115C57.0139 68.4337 65.7107 61.8802 67.0328 52.4727C68.3549 43.0651 61.8015 34.3684 52.394 33.0463C42.9864 31.7241 34.2046 38.1646 32.8825 47.5722C31.5603 56.9797 38.1989 65.7894 47.6064 67.1115Z" fill="#777777"/>
</g>
<g id="big_gear">
<path id="Vector" d="M85.1 51.8C86.4 51.6 86.4 51.3 85.1 51L81.4 50.3V50V48.5L85 47.6C86.3 47.3 86.2 46.9 84.9 46.8L81.2 46.5C81.1 45.9 81.1 45.4 81 44.8L84.5 43.5C85.7 43 85.7 42.7 84.4 42.7L80.7 42.8C80.6 42.2 80.4 41.7 80.3 41.1L83.6 39.4C84.8 38.8 84.6 38.5 83.4 38.7L79.7 39.3C79.5 38.8 79.3 38.2 79.1 37.7L82.2 35.6C83.3 34.8 83.1 34.5 81.9 34.9L78.3 35.9C78 35.4 77.8 34.9 77.5 34.4L80.3 31.9C81.3 31 81.1 30.7 79.9 31.2L76.5 32.6C76.2 32.1 75.8 31.6 75.5 31.2L78 28.4C78.9 27.4 78.7 27.2 77.5 27.8L74 29.6C73.6 29.2 73.3 28.7 72.9 28.3L75.1 25.2C75.9 24.1 75.6 23.9 74.5 24.6L71.5 26.8C71.1 26.4 70.7 26 70.2 25.7L72 22.4C72.6 21.2 72.3 21 71.4 21.9L68.7 24.4C68.2 24.1 67.8 23.7 67.3 23.4L68.7 19.9C69.2 18.7 68.9 18.5 68 19.5L65.6 22.3C65.1 22 64.6 21.8 64.1 21.5L65 17.9C65.3 16.6 65 16.5 64.3 17.6L62.3 20.7C61.8 20.5 61.2 20.3 60.7 20.1L61.2 16.4C61.4 15.1 61.1 15 60.5 16.2L58.8 19.5C58.3 19.3 57.7 19.2 57.1 19.1L57.2 15.4C57.2 14.1 56.9 14 56.4 15.3L55.1 18.8C54.5 18.7 54 18.6 53.4 18.6L52.8 15C52.7 13.7 52.3 13.7 52 14.9L51.1 18.5H49.4L48.6 14.8C48.3 13.5 48 13.5 47.8 14.8L47.4 18.5C46.8 18.5 46.3 18.6 45.7 18.7L44.4 15.2C44 14 43.6 14 43.6 15.3L43.7 19C43.1 19.1 42.6 19.2 42 19.4L40.4 16C39.8 14.8 39.5 14.9 39.6 16.2L40 19.9C39.5 20.1 38.9 20.3 38.4 20.5L36.4 17.4C35.7 16.3 35.4 16.4 35.7 17.7L36.6 21.3C36.1 21.5 35.6 21.8 35.1 22.1L32.7 19.2C31.9 18.2 31.6 18.4 32 19.6L33.3 23.1C32.8 23.4 32.3 23.7 31.9 24L29.2 21.4C28.2 20.5 28 20.7 28.6 21.9L30.3 25.2C29.9 25.6 29.4 25.9 29 26.3L26 24.1C24.9 23.3 24.7 23.6 25.4 24.6L27.5 27.7C27.1 28.1 26.7 28.5 26.3 29L23.1 27.1C22 26.4 21.7 26.7 22.6 27.7L25 30.5C24.7 30.9 24.3 31.4 24 31.9L20.6 30.4C19.4 29.9 19.2 30.2 20.2 31.1L23 33.6C22.7 34.1 22.4 34.6 22.2 35.1L18.6 34.1C17.3 33.7 17.2 34.1 18.3 34.8L21.3 36.9C21.1 37.4 20.8 37.9 20.6 38.5L16.9 37.9C15.6 37.7 15.5 38 16.6 38.6L19.9 40.4C19.7 40.9 19.6 41.5 19.4 42L15.7 41.9C14.4 41.9 14.3 42.2 15.5 42.7L19 44C18.9 44.6 18.8 45.1 18.7 45.7L15 46.2C13.7 46.3 13.7 46.6 14.9 47L18.5 48C18.5 48.6 18.4 49.1 18.4 49.7L14.7 50.4C13.4 50.6 13.4 51 14.7 51.2L18.4 51.7C18.4 52.3 18.5 52.8 18.5 53.4L14.9 54.5C13.6 54.9 13.7 55.2 15 55.3L18.7 55.4C18.8 56 18.9 56.5 19 57.1L15.6 58.7C14.4 59.3 14.5 59.6 15.8 59.5L19.5 59.1C19.7 59.7 19.8 60.2 20 60.8L16.8 62.7C15.7 63.4 15.8 63.7 17.1 63.4L20.8 62.6C21 63.1 21.3 63.6 21.5 64.2L18.6 66.5C17.6 67.3 17.7 67.6 19 67.2L22.5 66L23.4 67.5L21 69.9C20.1 70.8 20.3 71.1 21.4 70.5L24.8 68.9C25.1 69.4 25.5 69.8 25.9 70.2L23.6 73.1C22.8 74.1 23 74.4 24.1 73.7L27.2 71.7L28.4 72.9L26.5 76.1C25.8 77.2 26.1 77.4 27.1 76.6L30 74.2C30.4 74.6 30.9 74.9 31.4 75.3L29.8 78.7C29.2 79.9 29.5 80.1 30.4 79.1L33 76.4L34.5 77.3L33.3 80.8C32.9 82 33.2 82.2 34 81.2L36.3 78.2C36.8 78.4 37.3 78.7 37.9 78.9L37.2 82.6C36.9 83.9 37.3 84 37.9 82.9L39.8 79.7C40.3 79.9 40.9 80.1 41.4 80.2L41 84C40.9 85.3 41.2 85.4 41.8 84.2L43.3 80.8C43.9 80.9 44.4 81 45 81.1L45.2 84.8C45.3 86.1 45.6 86.1 46 84.9L47 81.3C47.6 81.4 48.2 81.4 48.7 81.4L49.3 85.1C49.5 86.4 49.8 86.4 50.1 85.1L50.8 81.4C51.4 81.4 51.9 81.4 52.5 81.3L53.5 84.9C53.9 86.2 54.2 86.1 54.3 84.8L54.5 81.1C55.1 81 55.6 80.9 56.2 80.8L57.6 84.2C58.1 85.4 58.4 85.3 58.4 84L58 80.5C58.6 80.4 59.1 80.2 59.6 80L61.5 83.2C62.2 84.3 62.5 84.2 62.2 82.9L61.5 79.2C62 79 62.6 78.8 63.1 78.5L65.3 81.5C66.1 82.6 66.4 82.4 66 81.1L65 77.7L66.5 76.8L69 79.5C69.9 80.5 70.2 80.3 69.7 79.1L68.2 75.7C68.7 75.4 69.1 75 69.6 74.7L72.5 77.1C73.5 77.9 73.8 77.7 73.1 76.6L71.2 73.4L72.4 72.2L75.5 74.2C76.6 74.9 76.8 74.7 76 73.6L73.7 70.7C74.1 70.3 74.4 69.8 74.8 69.4L78.2 71.1C79.4 71.7 79.6 71.4 78.7 70.5L76 67.8C76.3 67.3 76.6 66.9 76.9 66.4L80.4 67.6C81.6 68 81.8 67.7 80.8 66.9L77.9 64.6C78.2 64.1 78.4 63.6 78.7 63L82.3 63.8C83.6 64.1 83.7 63.8 82.6 63.1L79.4 61.1C79.6 60.6 79.8 60 80 59.5L83.7 59.9C85 60 85.1 59.7 83.9 59.1L80.5 57.5C80.6 56.9 80.8 56.4 80.9 55.8L84.6 55.7C85.9 55.7 86 55.3 84.7 54.9L81.2 54C81.3 53.4 81.3 52.9 81.4 52.3L85.1 51.8ZM36.9 69.4C35.9 71.2 33.3 71.4 31.7 70.5C30.6 69.9 28 67.4 25.6 63.5C23.4 59.5 22.2 55 22.2 50.1C22.2 41.9 25.7 34.6 31.4 29.5C33.2 28.5 35.7 28.7 36.7 30.4L46.6 47.4C47.4 48.8 47.4 51.5 46.5 52.9L36.9 69.4ZM71.4 67.6C68.2 71.4 64.1 74.4 59.3 76.1C53.1 77.9 45 78 41.9 76.3C39.8 75.3 39 73.1 40 71.3L49.8 54.3C50.6 52.9 52.7 51.7 54.3 51.7H73.4C75.5 51.7 76.9 53.5 76.9 55.3C76.9 56.9 75.6 62.4 71.4 67.6ZM48.5 50C48.5 49.2 49.2 48.5 50 48.5C50.8 48.5 51.5 49.2 51.5 50C51.5 50.8 50.8 51.5 50 51.5C49.2 51.5 48.5 50.8 48.5 50ZM73.8 48.2H53.8C52.1 48.1 50.1 46.7 49.3 45.2L39.8 28.7C38.8 26.9 39.9 24.9 41.5 24C42.6 23.4 46.1 22.3 50.7 22.3C63.8 22.6 74.6 32.1 77.1 44.5C77.4 46.6 75.6 48.2 73.8 48.2Z" fill="url(#paint1_linear)"/>
</g>
</g>
<defs>
<linearGradient id="paint0_linear" x1="49.986" y1="5.028" x2="49.986" y2="94.998" gradientUnits="userSpaceOnUse">
<stop stop-color="#D3D7DD"/>
<stop offset="1" stop-color="#888C90"/>
</linearGradient>
<linearGradient id="paint1_linear" x1="49.9803" y1="13.9462" x2="49.9803" y2="86.1536" gradientUnits="userSpaceOnUse">
<stop stop-color="#D9DADB"/>
<stop offset="1" stop-color="#7D8082"/>
</linearGradient>
</defs>
</svg>
