<svg width="120" height="120" viewBox="0 0 120 120" fill="none" xmlns="http://www.w3.org/2000/svg">
<g id="settings 1">
<g id="settings_box">
<mask id="mask0" mask-type="alpha" maskUnits="userSpaceOnUse" x="0" y="0" width="120" height="120">
<g id="mask 3">
<path id="Vector" d="M92 0H28C12.536 0 0 12.536 0 28V92C0 107.464 12.536 120 28 120H92C107.464 120 120 107.464 120 92V28C120 12.536 107.464 0 92 0Z" fill="white"/>
</g>
</mask>
<g mask="url(#mask0)">
<path id="bg" d="M92 0H28C12.536 0 0 12.536 0 28V92C0 107.464 12.536 120 28 120H92C107.464 120 120 107.464 120 92V28C120 12.536 107.464 0 92 0Z" fill="url(#paint0_linear)"/>
<g id="Oval 2">
<path id="Vector_2" d="M60 113C89.2711 113 113 89.2711 113 60C113 30.7289 89.2711 7 60 7C30.7289 7 7 30.7289 7 60C7 89.2711 30.7289 113 60 113Z" fill="#302F33"/>
<g id="Vector_3" filter="url(#filter0_i)">
<path d="M60 113C89.2711 113 113 89.2711 113 60C113 30.7289 89.2711 7 60 7C30.7289 7 7 30.7289 7 60C7 89.2711 30.7289 113 60 113Z" fill="black"/>
</g>
</g>
</g>
</g>
<path id="small_gear" fill-rule="evenodd" clip-rule="evenodd" d="M65.392 27.824L66.19 27.95L66.173 31.736C66.729 31.856 67.28 31.991 67.823 32.141L69.28 28.711L70.057 28.934L69.58 32.688C70.117 32.874 70.646 33.076 71.168 33.292L73.032 30.066L73.776 30.382L72.844 34.051C73.202 34.227 73.555 34.41 73.904 34.6L76.096 31.584L76.803 31.976L75.492 35.53C75.972 35.832 76.442 36.148 76.902 36.476L79.447 33.748L80.101 34.223L78.365 37.593C78.804 37.951 79.232 38.321 79.648 38.703L82.509 36.304L83.1 36.855L80.966 39.99C81.358 40.398 81.738 40.817 82.106 41.247L85.236 39.214L85.756 39.834L83.257 42.684C83.495 43.001 83.727 43.324 83.953 43.651L87.278 41.958L87.73 42.628L84.948 45.199C85.238 45.684 85.515 46.179 85.778 46.681L89.281 45.407L89.648 46.127L86.576 48.339C86.806 48.855 87.019 49.38 87.218 49.912L90.849 49.075L91.125 49.835L87.807 51.655C87.971 52.195 88.119 52.742 88.251 53.295L91.958 52.907L92.14 53.694L88.622 55.097C88.689 55.487 88.749 55.881 88.801 56.277H92.531L92.63 57.08L88.98 58.109C89.018 58.669 89.04 59.235 89.044 59.804L92.75 60.261V61.069L89.003 61.645C88.972 62.214 88.925 62.778 88.862 63.337L92.482 64.24L92.383 65.043L88.598 65.158C88.528 65.551 88.45 65.941 88.365 66.328L91.867 67.604L91.685 68.392L87.911 68.111C87.7537 68.6553 87.5802 69.1949 87.391 69.729L90.711 71.422L90.434 72.182L86.722 71.442C86.4975 71.9673 86.2574 72.4859 86.002 72.997L89.102 75.051L88.742 75.774L85.126 74.616C84.926 74.961 84.718 75.301 84.504 75.636L87.37 77.999L86.935 78.681L83.465 77.153C83.1298 77.6108 82.7814 78.0586 82.42 78.496L84.972 81.187L84.458 81.811L81.205 79.875C80.953 80.144 80.696 80.407 80.435 80.665L82.843 84.107L82.243 84.647L78.995 81.995C78.6 82.335 78.195 82.667 77.781 82.987L79.751 86.693L79.088 87.156L76.193 84.131C75.8313 84.3736 75.4642 84.608 75.092 84.834L76.742 88.543L76.049 88.959L73.407 85.782C72.931 86.029 72.447 86.262 71.957 86.484L73.137 90.345L72.398 90.674L70.174 87.215C69.827 87.345 69.478 87.467 69.124 87.582L69.891 91.53L69.122 91.78L67.278 88.121C66.7538 88.2552 66.2259 88.3746 65.695 88.479L65.973 92.476L65.18 92.63L63.8 88.786C63.43 88.833 63.059 88.874 62.685 88.906L62.545 92.901L61.739 92.971L60.771 89.014C60.4211 89.0222 60.071 89.0242 59.721 89.02L58.761 92.944L57.956 92.874L57.817 88.935C57.435 88.905 57.055 88.868 56.677 88.825L55.32 92.603L54.527 92.449L54.799 88.542C54.2534 88.441 53.7108 88.3243 53.172 88.192L51.378 91.753L50.608 91.503L51.35 87.683C50.98 87.566 50.612 87.442 50.248 87.31L48.102 90.647L47.363 90.318L48.495 86.612C47.9821 86.3878 47.4759 86.1487 46.977 85.895L44.451 88.932L43.759 88.516L45.328 84.988C44.9329 84.7539 44.5435 84.5105 44.16 84.258L41.412 87.129L40.749 86.666L42.611 83.162C42.1695 82.8277 41.7377 82.4809 41.316 82.122L38.258 84.621L37.658 84.08L39.918 80.85C39.627 80.568 39.342 80.28 39.063 79.987L36.043 81.784L35.528 81.16L37.889 78.671C37.4999 78.2075 37.1254 77.7319 36.766 77.245L33.565 78.654L33.13 77.972L35.765 75.799C35.5273 75.4329 35.2979 75.0615 35.077 74.685L31.758 75.747L31.398 75.024L34.235 73.144C33.959 72.599 33.699 72.044 33.457 71.479L30.066 72.154L29.789 71.394L32.815 69.852C32.6085 69.2771 32.4204 68.6958 32.251 68.109L28.815 68.365L28.633 67.577L31.818 66.417C31.722 65.988 31.635 65.557 31.558 65.121L28.117 65.016L28.018 64.213L31.308 63.393C31.238 62.789 31.188 62.18 31.156 61.566L27.75 61.042V60.234L31.119 59.819C31.124 59.204 31.148 58.594 31.191 57.989L27.871 57.053L27.969 56.251L31.366 56.25C31.424 55.812 31.491 55.378 31.568 54.947L28.36 53.667L28.542 52.88L31.926 53.234C32.07 52.64 32.232 52.053 32.411 51.474L29.375 49.808L29.651 49.048L32.981 49.816C33.196 49.246 33.429 48.686 33.678 48.135L30.852 46.1L31.219 45.38L34.451 46.555C34.734 46.02 35.032 45.495 35.346 44.981L32.77 42.601L33.222 41.931L36.312 43.503C36.558 43.15 36.812 42.803 37.073 42.462L34.743 39.806L35.263 39.186L38.193 41.088C38.584 40.638 38.989 40.199 39.406 39.774L37.4 36.828L37.99 36.278L40.692 38.542C41.132 38.146 41.583 37.762 42.046 37.394L40.4 34.196L41.054 33.721L43.481 36.322C43.961 35.985 44.453 35.662 44.954 35.355L43.698 31.949L44.405 31.557L46.516 34.462C46.882 34.268 47.252 34.082 47.626 33.902L46.725 30.355L47.469 30.039L49.281 33.176C49.8182 32.96 50.3618 32.7602 50.911 32.577L50.444 28.907L51.221 28.684L52.653 32.056C53.205 31.91 53.763 31.78 54.328 31.666L54.311 27.923L55.109 27.797L56.133 31.362C56.692 31.286 56.999 31.222 57.568 31.179L58.013 27.415L58.821 27.387L59.409 31.095C59.548 31.093 59.943 31.095 60.083 31.095C60.336 31.095 60.588 31.098 60.84 31.105L61.425 27.417L62.232 27.445L62.678 31.209C63.245 31.259 63.807 31.326 64.364 31.409L65.393 27.824H65.392ZM60 83C72.703 83 83 72.703 83 60C83 47.297 72.703 37 60 37C47.297 37 37 47.297 37 60C37 72.703 47.297 83 60 83Z" fill="url(#paint1_linear)"/>
<g id="big_gear">
<g id="Vector_4" filter="url(#filter1_d)">
<path d="M59.69 54.827C60.296 55.901 61.333 57.163 61.933 57.538C62.74 58.043 63.901 58.346 66.968 58.346H92.158H86.908C94.908 58.346 96.408 55.346 96.408 52.846C96.408 51.911 95.928 50.103 94.967 47.423C89.527 33.423 75.922 23.5 60 23.5C56.7114 23.4973 53.4367 23.9267 50.26 24.777C49.496 25.009 48.934 25.234 48.573 25.45C46.431 26.738 44.632 29.569 48.752 36.426L46.04 31.913L59.053 53.57C59.071 53.616 59.092 53.66 59.113 53.704L59.689 54.828L59.69 54.827ZM62 64.5C61.101 65.062 60.607 65.716 59 68.5L46.022 90.037L48.752 85.493C44.632 92.35 46.431 95.181 48.573 96.469C49.348 96.934 51.052 97.435 53.686 97.971C55.7721 98.324 57.8842 98.5009 60 98.5C76.938 98.5 91.254 87.27 95.907 71.85C96.244 70.483 96.407 69.406 96.407 68.846C96.407 66.346 94.907 63.346 86.907 63.346H92.167H66.991C64.051 63.346 62.899 63.938 62 64.5V64.5ZM41.738 34.46L44.466 39.001C40.346 32.144 37.002 32.403 34.859 33.691C34.002 34.206 32.005 36.012 30 38.5L30.084 38.385C25.1512 44.8913 22.4871 52.8352 22.5 61C22.5 69.98 25.656 78.222 30.92 84.679L30 83.419C32.005 85.907 34.002 87.713 34.859 88.229C37.002 89.516 40.346 89.775 44.466 82.918L41.721 87.487L54.1 66.88L54 67C55.333 64.333 56 62.167 56 60.5C56 59.153 55.456 57.48 54.367 55.479L41.737 34.46H41.738ZM67.883 12.144L69.069 12.332L69.044 17.952C69.869 18.129 70.686 18.33 71.494 18.553L73.657 13.461L74.81 13.792L74.1 19.365C74.898 19.642 75.684 19.941 76.46 20.263L79.227 15.473L80.331 15.942L78.947 21.389C79.478 21.649 80.003 21.921 80.521 22.203L83.776 17.726L84.826 18.308L82.878 23.585C83.59 24.033 84.288 24.501 84.971 24.989L88.751 20.939L89.721 21.644L87.144 26.648C87.7949 27.1787 88.4301 27.7283 89.049 28.296L93.296 24.734L94.174 25.552L91.005 30.206C91.587 30.8114 92.1512 31.4337 92.697 32.072L97.346 29.055L98.117 29.974L94.407 34.204C94.761 34.676 95.105 35.155 95.44 35.641L100.376 33.128L101.047 34.123L96.917 37.94C97.349 38.66 97.759 39.393 98.149 40.14L103.35 38.249L103.895 39.318L99.335 42.601C99.675 43.368 99.992 44.147 100.288 44.937L105.678 43.694L106.088 44.822L101.162 47.524C101.405 48.326 101.625 49.138 101.822 49.959L107.324 49.382L107.594 50.552L102.372 52.635C102.472 53.215 102.56 53.798 102.637 54.385L108.175 54.387L108.321 55.578L102.904 57.106C102.959 57.938 102.991 58.778 102.998 59.623L108.5 60.3V61.5L102.937 62.356C102.891 63.1945 102.821 64.0315 102.727 64.866L108.102 66.208L107.956 67.399L102.336 67.571C102.233 68.1523 102.117 68.7314 101.99 69.308L107.19 71.202L106.92 72.372L101.316 71.955C101.083 72.7631 100.826 73.5641 100.545 74.357L105.472 76.87L105.062 77.998L99.552 76.901C99.2183 77.6808 98.8615 78.4504 98.482 79.209L103.085 82.258L102.549 83.332L97.182 81.613C96.8844 82.1236 96.5764 82.6281 96.258 83.126L100.512 86.635L99.867 87.647L94.715 85.38C94.2172 86.0593 93.6997 86.7239 93.163 87.373L96.953 91.368L96.189 92.294L91.359 89.421C90.986 89.819 90.605 90.21 90.217 90.593L93.792 95.703L92.9 96.505L88.08 92.567C87.493 93.073 86.892 93.564 86.277 94.039L89.201 99.541L88.218 100.23L83.919 95.739C83.383 96.099 82.838 96.447 82.284 96.783L84.734 102.288L83.704 102.906L79.783 98.189C79.076 98.556 78.359 98.903 77.631 99.231L79.381 104.964L78.285 105.452L74.983 100.318C74.4676 100.51 73.9485 100.691 73.426 100.863L74.563 106.723L73.423 107.095L70.684 101.662C69.909 101.86 69.125 102.038 68.334 102.193L68.747 108.127L67.569 108.357L65.52 102.649C64.972 102.719 64.42 102.779 63.865 102.829L63.656 108.759L62.461 108.863L61.024 102.988C60.5041 103 59.984 103.003 59.464 102.997L58.039 108.823L56.844 108.718L56.638 102.871C56.0726 102.827 55.5082 102.772 54.945 102.706L52.931 108.316L51.753 108.087L52.157 102.287C51.3472 102.138 50.5418 101.965 49.742 101.769L47.078 107.055L45.937 106.684L47.037 101.012C46.488 100.838 45.9425 100.654 45.401 100.458L42.215 105.412L41.118 104.924L42.798 99.422C42.0368 99.0889 41.2855 98.7338 40.545 98.357L36.795 102.867L35.766 102.248L38.096 97.011C37.5098 96.6631 36.932 96.3013 36.363 95.926L32.283 100.19L31.299 99.501L34.063 94.3C33.4074 93.8034 32.7662 93.2882 32.14 92.755L27.6 96.465L26.708 95.662L30.064 90.868C29.6325 90.4495 29.2097 90.0221 28.796 89.586L24.311 92.254L23.547 91.328L27.053 87.633C26.4751 86.9449 25.9188 86.2388 25.385 85.516L20.633 87.607L19.988 86.595L23.898 83.369C23.5456 82.8251 23.2055 82.2733 22.878 81.714L17.951 83.292L17.415 82.218L21.628 79.428C21.218 78.618 20.832 77.794 20.472 76.956L15.438 77.958L15.028 76.83L19.52 74.54C19.2136 73.6864 18.9344 72.8233 18.683 71.952L13.58 72.332L13.31 71.162L18.04 69.44C17.8966 68.8014 17.7679 68.1595 17.654 67.515L12.544 67.359L12.398 66.169L17.282 64.949C17.179 64.054 17.104 63.149 17.057 62.238L12 61.46V60.26L17.001 59.644C17.0084 58.7378 17.0441 57.832 17.108 56.928L12.178 55.538L12.325 54.348L17.368 54.346C17.454 53.696 17.554 53.051 17.668 52.411L12.906 50.511L13.176 49.342L18.2 49.869C18.4122 48.9903 18.6524 48.1185 18.92 47.255L14.412 44.782L14.822 43.654L19.766 44.794C20.086 43.949 20.431 43.117 20.801 42.298L16.605 39.278L17.15 38.208L21.949 39.954C22.3672 39.1613 22.8101 38.3819 23.277 37.617L19.453 34.083L20.123 33.088L24.711 35.423C25.077 34.899 25.454 34.384 25.841 33.877L22.383 29.934L23.154 29.014L27.504 31.838C28.0839 31.1694 28.6842 30.5188 29.304 29.887L26.326 25.512L27.204 24.694L31.214 28.057C31.8665 27.4684 32.5368 26.8998 33.224 26.352L30.779 21.604L31.749 20.899L35.353 24.76C36.066 24.26 36.796 23.781 37.541 23.324L35.675 18.268L36.725 17.686L39.858 22C40.4013 21.7115 40.9508 21.4348 41.506 21.17L40.168 15.903L41.272 15.433L43.962 20.091C44.758 19.771 45.565 19.474 46.382 19.201L45.689 13.753L46.842 13.423L48.969 18.429C49.789 18.212 50.617 18.019 51.455 17.849L51.43 12.293L52.616 12.105L54.135 17.398C54.965 17.284 55.421 17.191 56.265 17.125L56.926 11.539L58.126 11.497L59 17C59.206 16.997 59.793 17 60 17C60.376 17 60.75 17.005 61.124 17.014L61.992 11.54L63.192 11.582L63.852 17.17C64.694 17.245 65.529 17.344 66.356 17.466L67.883 12.144V12.144Z" fill="black"/>
</g>
<path id="Vector_5" d="M59.69 54.827C60.296 55.901 61.333 57.163 61.933 57.538C62.74 58.043 63.901 58.346 66.968 58.346H92.158H86.908C94.908 58.346 96.408 55.346 96.408 52.846C96.408 51.911 95.928 50.103 94.967 47.423C89.527 33.423 75.922 23.5 60 23.5C56.7114 23.4973 53.4367 23.9267 50.26 24.777C49.496 25.009 48.934 25.234 48.573 25.45C46.431 26.738 44.632 29.569 48.752 36.426L46.04 31.913L59.053 53.57C59.071 53.616 59.092 53.66 59.113 53.704L59.689 54.828L59.69 54.827ZM62 64.5C61.101 65.062 60.607 65.716 59 68.5L46.022 90.037L48.752 85.493C44.632 92.35 46.431 95.181 48.573 96.469C49.348 96.934 51.052 97.435 53.686 97.971C55.7721 98.324 57.8842 98.5009 60 98.5C76.938 98.5 91.254 87.27 95.907 71.85C96.244 70.483 96.407 69.406 96.407 68.846C96.407 66.346 94.907 63.346 86.907 63.346H92.167H66.991C64.051 63.346 62.899 63.938 62 64.5V64.5ZM41.738 34.46L44.466 39.001C40.346 32.144 37.002 32.403 34.859 33.691C34.002 34.206 32.005 36.012 30 38.5L30.084 38.385C25.1512 44.8913 22.4871 52.8352 22.5 61C22.5 69.98 25.656 78.222 30.92 84.679L30 83.419C32.005 85.907 34.002 87.713 34.859 88.229C37.002 89.516 40.346 89.775 44.466 82.918L41.721 87.487L54.1 66.88L54 67C55.333 64.333 56 62.167 56 60.5C56 59.153 55.456 57.48 54.367 55.479L41.737 34.46H41.738ZM67.883 12.144L69.069 12.332L69.044 17.952C69.869 18.129 70.686 18.33 71.494 18.553L73.657 13.461L74.81 13.792L74.1 19.365C74.898 19.642 75.684 19.941 76.46 20.263L79.227 15.473L80.331 15.942L78.947 21.389C79.478 21.649 80.003 21.921 80.521 22.203L83.776 17.726L84.826 18.308L82.878 23.585C83.59 24.033 84.288 24.501 84.971 24.989L88.751 20.939L89.721 21.644L87.144 26.648C87.7949 27.1787 88.4301 27.7283 89.049 28.296L93.296 24.734L94.174 25.552L91.005 30.206C91.587 30.8114 92.1512 31.4337 92.697 32.072L97.346 29.055L98.117 29.974L94.407 34.204C94.761 34.676 95.105 35.155 95.44 35.641L100.376 33.128L101.047 34.123L96.917 37.94C97.349 38.66 97.759 39.393 98.149 40.14L103.35 38.249L103.895 39.318L99.335 42.601C99.675 43.368 99.992 44.147 100.288 44.937L105.678 43.694L106.088 44.822L101.162 47.524C101.405 48.326 101.625 49.138 101.822 49.959L107.324 49.382L107.594 50.552L102.372 52.635C102.472 53.215 102.56 53.798 102.637 54.385L108.175 54.387L108.321 55.578L102.904 57.106C102.959 57.938 102.991 58.778 102.998 59.623L108.5 60.3V61.5L102.937 62.356C102.891 63.1945 102.821 64.0315 102.727 64.866L108.102 66.208L107.956 67.399L102.336 67.571C102.233 68.1523 102.117 68.7314 101.99 69.308L107.19 71.202L106.92 72.372L101.316 71.955C101.083 72.7631 100.826 73.5641 100.545 74.357L105.472 76.87L105.062 77.998L99.552 76.901C99.2183 77.6808 98.8615 78.4504 98.482 79.209L103.085 82.258L102.549 83.332L97.182 81.613C96.8844 82.1236 96.5764 82.6281 96.258 83.126L100.512 86.635L99.867 87.647L94.715 85.38C94.2172 86.0593 93.6997 86.7239 93.163 87.373L96.953 91.368L96.189 92.294L91.359 89.421C90.986 89.819 90.605 90.21 90.217 90.593L93.792 95.703L92.9 96.505L88.08 92.567C87.493 93.073 86.892 93.564 86.277 94.039L89.201 99.541L88.218 100.23L83.919 95.739C83.383 96.099 82.838 96.447 82.284 96.783L84.734 102.288L83.704 102.906L79.783 98.189C79.076 98.556 78.359 98.903 77.631 99.231L79.381 104.964L78.285 105.452L74.983 100.318C74.4676 100.51 73.9485 100.691 73.426 100.863L74.563 106.723L73.423 107.095L70.684 101.662C69.909 101.86 69.125 102.038 68.334 102.193L68.747 108.127L67.569 108.357L65.52 102.649C64.972 102.719 64.42 102.779 63.865 102.829L63.656 108.759L62.461 108.863L61.024 102.988C60.5041 103 59.984 103.003 59.464 102.997L58.039 108.823L56.844 108.718L56.638 102.871C56.0726 102.827 55.5082 102.772 54.945 102.706L52.931 108.316L51.753 108.087L52.157 102.287C51.3472 102.138 50.5418 101.965 49.742 101.769L47.078 107.055L45.937 106.684L47.037 101.012C46.488 100.838 45.9425 100.654 45.401 100.458L42.215 105.412L41.118 104.924L42.798 99.422C42.0368 99.0889 41.2855 98.7338 40.545 98.357L36.795 102.867L35.766 102.248L38.096 97.011C37.5098 96.6631 36.932 96.3013 36.363 95.926L32.283 100.19L31.299 99.501L34.063 94.3C33.4074 93.8034 32.7662 93.2882 32.14 92.755L27.6 96.465L26.708 95.662L30.064 90.868C29.6325 90.4495 29.2097 90.0221 28.796 89.586L24.311 92.254L23.547 91.328L27.053 87.633C26.4751 86.9449 25.9188 86.2388 25.385 85.516L20.633 87.607L19.988 86.595L23.898 83.369C23.5456 82.8251 23.2055 82.2733 22.878 81.714L17.951 83.292L17.415 82.218L21.628 79.428C21.218 78.618 20.832 77.794 20.472 76.956L15.438 77.958L15.028 76.83L19.52 74.54C19.2136 73.6864 18.9344 72.8233 18.683 71.952L13.58 72.332L13.31 71.162L18.04 69.44C17.8966 68.8014 17.7679 68.1595 17.654 67.515L12.544 67.359L12.398 66.169L17.282 64.949C17.179 64.054 17.104 63.149 17.057 62.238L12 61.46V60.26L17.001 59.644C17.0084 58.7378 17.0441 57.832 17.108 56.928L12.178 55.538L12.325 54.348L17.368 54.346C17.454 53.696 17.554 53.051 17.668 52.411L12.906 50.511L13.176 49.342L18.2 49.869C18.4122 48.9903 18.6524 48.1185 18.92 47.255L14.412 44.782L14.822 43.654L19.766 44.794C20.086 43.949 20.431 43.117 20.801 42.298L16.605 39.278L17.15 38.208L21.949 39.954C22.3672 39.1613 22.8101 38.3819 23.277 37.617L19.453 34.083L20.123 33.088L24.711 35.423C25.077 34.899 25.454 34.384 25.841 33.877L22.383 29.934L23.154 29.014L27.504 31.838C28.0839 31.1694 28.6842 30.5188 29.304 29.887L26.326 25.512L27.204 24.694L31.214 28.057C31.8665 27.4684 32.5368 26.8998 33.224 26.352L30.779 21.604L31.749 20.899L35.353 24.76C36.066 24.26 36.796 23.781 37.541 23.324L35.675 18.268L36.725 17.686L39.858 22C40.4013 21.7115 40.9508 21.4348 41.506 21.17L40.168 15.903L41.272 15.433L43.962 20.091C44.758 19.771 45.565 19.474 46.382 19.201L45.689 13.753L46.842 13.423L48.969 18.429C49.789 18.212 50.617 18.019 51.455 17.849L51.43 12.293L52.616 12.105L54.135 17.398C54.965 17.284 55.421 17.191 56.265 17.125L56.926 11.539L58.126 11.497L59 17C59.206 16.997 59.793 17 60 17C60.376 17 60.75 17.005 61.124 17.014L61.992 11.54L63.192 11.582L63.852 17.17C64.694 17.245 65.529 17.344 66.356 17.466L67.883 12.144V12.144Z" fill="url(#paint2_linear)"/>
</g>
</g>
<defs>
<filter id="filter0_i" x="7" y="7" width="106" height="107" filterUnits="userSpaceOnUse" color-interpolation-filters="sRGB">
<feFlood flood-opacity="0" result="BackgroundImageFix"/>
<feBlend mode="normal" in="SourceGraphic" in2="BackgroundImageFix" result="shape"/>
<feColorMatrix in="SourceAlpha" type="matrix" values="0 0 0 0 0 0 0 0 0 0 0 0 0 0 0 0 0 0 127 0" result="hardAlpha"/>
<feOffset dy="1"/>
<feGaussianBlur stdDeviation="1.5"/>
<feComposite in2="hardAlpha" operator="arithmetic" k2="-1" k3="1"/>
<feColorMatrix type="matrix" values="0 0 0 0 0 0 0 0 0 0 0 0 0 0 0 0 0 0 0.5 0"/>
<feBlend mode="normal" in2="shape" result="effect1_innerShadow"/>
</filter>
<filter id="filter1_d" x="8" y="9.49699" width="104.5" height="105.366" filterUnits="userSpaceOnUse" color-interpolation-filters="sRGB">
<feFlood flood-opacity="0" result="BackgroundImageFix"/>
<feColorMatrix in="SourceAlpha" type="matrix" values="0 0 0 0 0 0 0 0 0 0 0 0 0 0 0 0 0 0 127 0"/>
<feOffset dy="2"/>
<feGaussianBlur stdDeviation="2"/>
<feColorMatrix type="matrix" values="0 0 0 0 0 0 0 0 0 0 0 0 0 0 0 0 0 0 0.5 0"/>
<feBlend mode="normal" in2="BackgroundImageFix" result="effect1_dropShadow"/>
<feBlend mode="normal" in="SourceGraphic" in2="effect1_dropShadow" result="shape"/>
</filter>
<linearGradient id="paint0_linear" x1="60" y1="0" x2="60" y2="120" gradientUnits="userSpaceOnUse">
<stop stop-color="#E8E2F0"/>
<stop offset="1" stop-color="#8A8E92"/>
</linearGradient>
<linearGradient id="paint1_linear" x1="60.25" y1="-0.375647" x2="60.25" y2="120.032" gradientUnits="userSpaceOnUse">
<stop stop-color="#E8E2F0"/>
<stop offset="1" stop-color="#8A8E92"/>
</linearGradient>
<linearGradient id="paint2_linear" x1="60.25" y1="-1.27593" x2="60.25" y2="120.473" gradientUnits="userSpaceOnUse">
<stop stop-color="#E8E2F0"/>
<stop offset="1" stop-color="#8A8E92"/>
</linearGradient>
</defs>
</svg>
